<svg width="27" height="25" viewBox="0 0 27 25" fill="none" xmlns="http://www.w3.org/2000/svg">
<path d="M11.8039 1.49371L0.730485 21.6937C0.57225 21.9848 0.492961 22.3123 0.50049 22.6436C0.508019 22.9748 0.602104 23.2984 0.773404 23.582C0.944704 23.8657 1.18726 24.0997 1.47699 24.2607C1.76671 24.4217 2.09353 24.5041 2.425 24.4998H24.5779C24.9089 24.5029 25.235 24.4196 25.524 24.2583C25.813 24.097 26.0549 23.8632 26.226 23.5799C26.397 23.2967 26.4913 22.9737 26.4994 22.643C26.5076 22.3122 26.4293 21.985 26.2724 21.6937L15.193 1.49371C15.0245 1.19239 14.7786 0.941444 14.4807 0.766766C14.1829 0.592088 13.8438 0.5 13.4984 0.5C13.1531 0.5 12.814 0.592088 12.5161 0.766766C12.2183 0.941444 11.9724 1.19239 11.8039 1.49371ZM14.5987 9.87501L14.3736 17.4997H12.6227L12.3976 9.87501H14.5987ZM13.4984 21.6499C13.2727 21.6414 13.0545 21.5668 12.871 21.4352C12.6874 21.3037 12.5466 21.1211 12.466 20.9102C12.3855 20.6993 12.3688 20.4694 12.4181 20.2491C12.4673 20.0287 12.5803 19.8277 12.7429 19.6711C12.9056 19.5145 13.1107 19.4091 13.3328 19.3682C13.555 19.3273 13.7842 19.3525 13.9921 19.4408C14.1999 19.5291 14.3772 19.6766 14.5018 19.8649C14.6264 20.0532 14.6929 20.2739 14.6929 20.4997C14.6916 20.6541 14.6594 20.8066 14.5983 20.9484C14.5373 21.0902 14.4485 21.2184 14.3373 21.3255C14.2261 21.4326 14.0946 21.5164 13.9506 21.5721C13.8065 21.6278 13.6528 21.6543 13.4984 21.6499Z" fill="#ED9400"/>
</svg>
